<?xml version="1.0" encoding="UTF-8" standalone="no"?>
<!-- Created with Inkscape (http://www.inkscape.org/) -->

<svg
   xmlns:dc="http://purl.org/dc/elements/1.1/"
   xmlns:cc="http://creativecommons.org/ns#"
   xmlns:rdf="http://www.w3.org/1999/02/22-rdf-syntax-ns#"
   xmlns:svg="http://www.w3.org/2000/svg"
   xmlns="http://www.w3.org/2000/svg"
   xmlns:sodipodi="http://sodipodi.sourceforge.net/DTD/sodipodi-0.dtd"
   xmlns:inkscape="http://www.inkscape.org/namespaces/inkscape"
   width="54.536777mm"
   height="36.862823mm"
   viewBox="0 0 193.24055 130.6163"
   id="svg2"
   version="1.1"
   inkscape:version="0.91 r13725"
   sodipodi:docname="google-plus.svg">
  <defs
     id="defs4" />
  <sodipodi:namedview
     id="base"
     pagecolor="#ffffff"
     bordercolor="#666666"
     borderopacity="1.0"
     inkscape:pageopacity="0.0"
     inkscape:pageshadow="2"
     inkscape:zoom="0.35"
     inkscape:cx="264.47742"
     inkscape:cy="-554.69186"
     inkscape:document-units="px"
     inkscape:current-layer="layer1"
     showgrid="false"
     fit-margin-top="0"
     fit-margin-left="0"
     fit-margin-right="0"
     fit-margin-bottom="0"
     inkscape:window-width="1535"
     inkscape:window-height="876"
     inkscape:window-x="65"
     inkscape:window-y="24"
     inkscape:window-maximized="1" />
  <metadata
     id="metadata7">
    <rdf:RDF>
      <cc:Work
         rdf:about="">
        <dc:format>image/svg+xml</dc:format>
        <dc:type
           rdf:resource="http://purl.org/dc/dcmitype/StillImage" />
        <dc:title></dc:title>
      </cc:Work>
    </rdf:RDF>
  </metadata>
  <g
     inkscape:label="Layer 1"
     inkscape:groupmode="layer"
     id="layer1"
     transform="translate(182.33456,152.94595)">
    <path
       style="fill:#000000"
       d="m -130.20212,-31.654714 c -17.02728,-3.355989 -34.18307,-17.828123 -40.91166,-34.511913 -11.33287,-28.100276 2.02756,-61.000883 29.94065,-73.730073 10.46661,-4.77308 23.9447,-6.1446 35.82489,-3.64553 7.263197,1.52787 18.481848,7.01267 23.993489,11.73043 5.480382,4.691 5.0979,6.65878 -2.630416,13.53285 -3.457476,3.0753 -6.771927,5.59145 -7.365453,5.59145 -0.593517,0 -3.05382,-1.40396 -5.467334,-3.1199 -9.014776,-6.40927 -19.124186,-8.6845 -28.226336,-6.35264 -11.4485,2.93297 -20.21736,9.97448 -24.92243,20.01304 -2.12343,4.530474 -2.39766,6.18995 -2.39766,14.5092 0,8.31925 0.27423,9.978726 2.39766,14.509203 4.78401,10.206979 13.3907,17.032728 25.22469,20.00509 5.10857,1.283126 7.049,1.378028 11.44809,0.559932 11.13057,-2.069946 20.703279,-8.583602 25.881196,-17.61062 1.416963,-2.470291 2.580074,-4.793377 2.5847,-5.162412 0.0046,-0.369036 -6.553736,-0.670975 -14.574113,-0.670975 -10.149103,0 -14.908893,-0.326385 -15.656063,-1.073558 -1.46225,-1.462253 -1.46225,-17.861802 0,-19.324055 0.78719,-0.78719 8.21978,-1.073559 27.863757,-1.073559 l 26.79019,0 -0.510933,10.959244 c -0.808086,17.332836 -6.111582,29.451972 -17.667438,40.372264 -13.715257,12.960912 -32.554446,18.250148 -51.619476,14.492532 z m 99.091871,-30.874572 c -0.509359,-0.951745 -0.926105,-4.776299 -0.926105,-8.499004 l 0,-6.768556 -7.425448,0 c -4.582502,0 -7.836476,-0.411028 -8.499005,-1.073559 -0.661795,-0.661797 -1.073559,-3.909506 -1.073559,-8.467529 0,-8.919684 0.361226,-9.246188 10.229457,-9.246188 l 6.768555,0 0,-7.093158 c 0,-9.28488 0.608779,-9.90485 9.725931,-9.90485 4.184892,0 7.338005,0.42378 7.987786,1.07356 0.662528,0.66253 1.073558,3.9165 1.073558,8.499 l 0,7.425448 7.4254473,0 c 4.5825028,0 7.8364769,0.411028 8.4990057,1.073559 1.4426123,1.442612 1.4426123,15.197546 0,16.640158 -0.6625288,0.662531 -3.9165029,1.073559 -8.4990057,1.073559 l -7.4254473,0 0,7.425447 c 0,4.582505 -0.41103,7.836477 -1.073558,8.499006 -0.661796,0.661795 -3.909507,1.073559 -8.467533,1.073559 -6.39458,0 -7.519142,-0.233893 -8.320079,-1.730452 z"
       id="path3382"
       inkscape:connector-curvature="0" />
  </g>
</svg>
