<?xml version="1.0" encoding="UTF-8" standalone="no"?>
<!-- Created with Inkscape (http://www.inkscape.org/) -->

<svg
   xmlns:dc="http://purl.org/dc/elements/1.1/"
   xmlns:cc="http://creativecommons.org/ns#"
   xmlns:rdf="http://www.w3.org/1999/02/22-rdf-syntax-ns#"
   xmlns:svg="http://www.w3.org/2000/svg"
   xmlns="http://www.w3.org/2000/svg"
   xmlns:sodipodi="http://sodipodi.sourceforge.net/DTD/sodipodi-0.dtd"
   xmlns:inkscape="http://www.inkscape.org/namespaces/inkscape"
   width="270"
   height="182.5"
   viewBox="0 0 270 182.5"
   id="svg2"
   version="1.1"
   inkscape:version="0.91 r13725"
   sodipodi:docname="instagram.svg">
  <defs
     id="defs4" />
  <sodipodi:namedview
     id="base"
     pagecolor="#ffffff"
     bordercolor="#666666"
     borderopacity="1.0"
     inkscape:pageopacity="0.0"
     inkscape:pageshadow="2"
     inkscape:zoom="0.35"
     inkscape:cx="-14.285723"
     inkscape:cy="314.10712"
     inkscape:document-units="px"
     inkscape:current-layer="layer1"
     showgrid="false"
     units="px"
     fit-margin-top="0"
     fit-margin-left="0"
     fit-margin-right="0"
     fit-margin-bottom="0"
     inkscape:window-width="1535"
     inkscape:window-height="876"
     inkscape:window-x="65"
     inkscape:window-y="24"
     inkscape:window-maximized="1" />
  <metadata
     id="metadata7">
    <rdf:RDF>
      <cc:Work
         rdf:about="">
        <dc:format>image/svg+xml</dc:format>
        <dc:type
           rdf:resource="http://purl.org/dc/dcmitype/StillImage" />
        <dc:title></dc:title>
      </cc:Work>
    </rdf:RDF>
  </metadata>
  <g
     inkscape:label="Layer 1"
     inkscape:groupmode="layer"
     id="layer1"
     transform="translate(17.857134,-892.54071)">
    <path
       style="fill:#000000"
       d="m 71.690142,1068.6657 c -23.109271,-3.3748 -38.003393,-19.5411 -40.768025,-44.25 -1.626148,-14.5337 -1.626148,-66.71626 0,-81.24999 2.827151,-25.2677 17.500059,-40.79259 41.88453,-44.31656 11.226797,-1.62246 77.287183,-1.63748 88.711223,-0.0202 17.01151,2.40833 31.02413,12.34039 37.56385,26.62499 4.13938,9.04162 5.54063,23.79518 5.54063,58.33674 0,34.54159 -1.40125,49.29509 -5.54063,58.33669 -6.53972,14.2846 -20.55234,24.2167 -37.56385,26.625 -10.52587,1.4902 -79.485978,1.4236 -89.827728,-0.087 z m 94.571588,-16.4762 c 8.8469,-2.8606 14.46789,-7.7428 18.1505,-15.7651 2.92774,-6.3778 3.30117,-9.0621 4.14871,-29.8212 0.51225,-12.54687 0.51225,-33.07812 0,-45.62499 -0.8511,-20.84632 -1.2123,-23.42451 -4.19089,-29.91332 -3.87298,-8.43727 -10.4352,-13.74177 -20.06277,-16.21754 -9.29576,-2.39045 -85.03306,-2.39045 -94.328831,0 -9.623349,2.47468 -16.188767,7.78031 -20.068288,16.21754 -2.994887,6.51332 -3.338019,8.98826 -4.147262,29.91332 -0.485232,12.54687 -0.485232,33.07812 0,45.62499 0.805908,20.8388 1.16107,23.4189 4.105092,29.8212 3.284853,7.1435 8.56446,12.2474 15.405419,14.8927 7.26261,2.8083 20.381247,3.5323 57.49446,3.1733 29.70215,-0.2873 38.74637,-0.7658 43.49386,-2.3009 z m -68.910007,-29.0898 c -10.110938,-5.0583 -16.434804,-11.5508 -21.242476,-21.809 -4.62171,-9.86139 -4.62171,-25.13859 0,-34.99999 4.807672,-10.25819 11.131538,-16.75071 21.242477,-21.809 8.137686,-4.07112 9.786046,-4.441 19.791146,-4.441 10.00508,0 11.65346,0.36988 19.79113,4.441 10.11094,5.05829 16.43482,11.55081 21.24248,21.809 4.62171,9.8614 4.62171,25.1386 0,34.99999 -4.80766,10.2582 -11.13154,16.7507 -21.24248,21.809 -8.13767,4.0711 -9.78605,4.441 -19.79113,4.441 -10.0051,0 -11.65346,-0.3699 -19.791147,-4.441 z m 28.622827,-11.811 c 6.06048,-1.6836 14.76102,-9.3895 17.56065,-15.55323 2.99187,-6.58689 2.99187,-17.30263 0,-23.88952 -2.79963,-6.16371 -11.50017,-13.86967 -17.56065,-15.55324 -10.30777,-2.86347 -19.65353,-0.87321 -27.520667,5.86077 -6.813565,5.83215 -10.006112,12.73572 -10.006112,21.63723 0,8.91309 3.193864,15.8062 10.038104,21.66459 7.846095,6.716 17.180795,8.6969 27.488675,5.8334 z m 30.4865,-66.81617 c -6.32081,-6.32081 -1.78593,-16.97866 7.1875,-16.89207 7.37858,0.0712 12.1805,6.6776 9.66423,13.29588 -2.73395,7.19086 -11.40635,9.04157 -16.85173,3.59619 z"
       id="path3474"
       inkscape:connector-curvature="0" />
  </g>
</svg>
