<?xml version="1.0" encoding="UTF-8" standalone="no"?>
<!-- Created with Inkscape (http://www.inkscape.org/) -->

<svg
   xmlns:dc="http://purl.org/dc/elements/1.1/"
   xmlns:cc="http://creativecommons.org/ns#"
   xmlns:rdf="http://www.w3.org/1999/02/22-rdf-syntax-ns#"
   xmlns:svg="http://www.w3.org/2000/svg"
   xmlns="http://www.w3.org/2000/svg"
   xmlns:sodipodi="http://sodipodi.sourceforge.net/DTD/sodipodi-0.dtd"
   xmlns:inkscape="http://www.inkscape.org/namespaces/inkscape"
   width="36.309731mm"
   height="24.542688mm"
   viewBox="0 0 128.65653 86.962281"
   id="svg2"
   version="1.1"
   inkscape:version="0.91 r13725"
   sodipodi:docname="pinterest.svg">
  <defs
     id="defs4" />
  <sodipodi:namedview
     id="base"
     pagecolor="#ffffff"
     bordercolor="#666666"
     borderopacity="1.0"
     inkscape:pageopacity="0.0"
     inkscape:pageshadow="2"
     inkscape:zoom="0.35"
     inkscape:cx="-102.10027"
     inkscape:cy="-182.23309"
     inkscape:document-units="px"
     inkscape:current-layer="layer1"
     showgrid="false"
     fit-margin-top="0"
     fit-margin-left="0"
     fit-margin-right="0"
     fit-margin-bottom="0"
     inkscape:window-width="1535"
     inkscape:window-height="876"
     inkscape:window-x="65"
     inkscape:window-y="24"
     inkscape:window-maximized="1" />
  <metadata
     id="metadata7">
    <rdf:RDF>
      <cc:Work
         rdf:about="">
        <dc:format>image/svg+xml</dc:format>
        <dc:type
           rdf:resource="http://purl.org/dc/dcmitype/StillImage" />
        <dc:title></dc:title>
      </cc:Work>
    </rdf:RDF>
  </metadata>
  <g
     inkscape:label="Layer 1"
     inkscape:groupmode="layer"
     id="layer1"
     transform="translate(-1441.386,-1520.3097)">
    <path
       style="fill:#000000"
       d="m 1499.1623,1605.0665 c -0.819,-0.1409 -2.4587,-0.5073 -3.6438,-0.814 l -2.1548,-0.5578 2.4526,-4.9124 c 1.3489,-2.7018 2.9431,-6.9226 3.5426,-9.3795 1.7884,-7.3286 1.4086,-6.8347 3.7054,-4.818 3.3682,2.9573 7.2163,3.6251 12.6117,2.1887 8.462,-2.2528 14.7003,-10.2066 16.2396,-20.7053 2.4264,-16.55 -10.2621,-29.5348 -27.661,-28.3069 -7.9039,0.5578 -13.9789,3.2935 -18.6963,8.4193 -5.7369,6.2337 -7.7739,15.0169 -5.3273,22.9709 1.5238,4.9541 7.6858,11.7974 8.48,9.4177 1.4547,-4.3592 1.4365,-5.2421 -0.1672,-8.0848 -1.3577,-2.4067 -1.5919,-3.5231 -1.5919,-7.587 0,-7.8126 3.2851,-13.0214 10.4052,-16.4979 2.1713,-1.0602 3.7461,-1.3188 8.0593,-1.3238 4.6405,-0.01 5.7659,0.2049 8.3767,1.565 6.5731,3.4242 9.6451,9.3525 9.0262,17.4184 -0.7614,9.9235 -6.2046,16.9803 -13.1141,17.0017 -1.5862,0 -4.3835,-1.59 -5.4439,-3.1039 -1.2857,-1.8357 -1.1877,-2.9915 0.8536,-10.0686 2.9801,-10.3316 2.1653,-13.9254 -3.1571,-13.9254 -3.1471,0 -4.8208,1.2383 -6.4403,4.7651 -1.2248,2.6672 -1.4121,6.073 -0.5121,9.313 0.5089,1.8321 0.1828,3.8949 -2.1185,13.4017 -2.3143,9.5606 -2.6932,11.9693 -2.5406,16.1516 0.099,2.7035 -0.051,4.9148 -0.3329,4.914 -1.1778,-0 -7.565,-3.8315 -10.9151,-6.5421 -19.9795,-16.1662 -19.9605,-48.0763 0.038,-64.4093 24.0928,-19.6763 61.0944,-6.8031 67.3254,23.4233 5.4514,26.4447 -14.5072,50.8897 -41.1695,50.4238 -2.5526,-0.045 -5.3113,-0.1965 -6.1303,-0.3375 z"
       id="path3419"
       inkscape:connector-curvature="0" />
  </g>
</svg>
